<mxfile host="app.diagrams.net" modified="2023-09-22T09:51:27.194Z" agent="Mozilla/5.0 (Windows NT 10.0; Win64; x64; rv:109.0) Gecko/20100101 Firefox/117.0" etag="b2zvR95WxGA7DSQM6Itb" version="21.8.0" type="onedrive">
  <diagram name="Sida-1" id="i2X3AONjAu71qA7WWbAD">
    <mxGraphModel grid="1" page="1" gridSize="10" guides="1" tooltips="1" connect="1" arrows="1" fold="1" pageScale="1" pageWidth="2339" pageHeight="3300" math="0" shadow="0">
      <root>
        <mxCell id="0" />
        <mxCell id="1" parent="0" />
        <mxCell id="VJxlPsrF5Fj8K6nHo9k7-1" value="Home Page" style="swimlane;whiteSpace=wrap;html=1;fillColor=#F2CC8F;strokeColor=#E07A5F;swimlaneFillColor=default;labelBorderColor=none;labelBackgroundColor=none;fontColor=#393C56;" vertex="1" parent="1">
          <mxGeometry x="240" y="200" width="500" height="410" as="geometry" />
        </mxCell>
        <mxCell id="VJxlPsrF5Fj8K6nHo9k7-4" value="" style="rounded=0;whiteSpace=wrap;html=1;fillColor=#F2CC8F;strokeColor=#E07A5F;glass=0;labelBackgroundColor=none;fontColor=#393C56;" vertex="1" parent="VJxlPsrF5Fj8K6nHo9k7-1">
          <mxGeometry x="165" y="30" width="170" height="40" as="geometry" />
        </mxCell>
        <mxCell id="VJxlPsrF5Fj8K6nHo9k7-5" value="" style="rounded=0;whiteSpace=wrap;html=1;labelBackgroundColor=none;fillColor=#F2CC8F;strokeColor=#E07A5F;fontColor=#393C56;" vertex="1" parent="VJxlPsrF5Fj8K6nHo9k7-1">
          <mxGeometry x="165" y="30" width="55" height="40" as="geometry" />
        </mxCell>
        <mxCell id="VJxlPsrF5Fj8K6nHo9k7-6" value="" style="rounded=0;whiteSpace=wrap;html=1;labelBackgroundColor=none;fillColor=#F2CC8F;strokeColor=#E07A5F;fontColor=#393C56;" vertex="1" parent="VJxlPsrF5Fj8K6nHo9k7-1">
          <mxGeometry x="220" y="30" width="60" height="40" as="geometry" />
        </mxCell>
        <mxCell id="VJxlPsrF5Fj8K6nHo9k7-7" value="" style="rounded=0;whiteSpace=wrap;html=1;labelBackgroundColor=none;fillColor=#F2CC8F;strokeColor=#E07A5F;fontColor=#393C56;" vertex="1" parent="VJxlPsrF5Fj8K6nHo9k7-1">
          <mxGeometry x="280" y="30" width="55" height="40" as="geometry" />
        </mxCell>
        <mxCell id="VJxlPsrF5Fj8K6nHo9k7-8" value="Home" style="text;html=1;strokeColor=none;fillColor=none;align=center;verticalAlign=middle;whiteSpace=wrap;rounded=0;labelBackgroundColor=none;fontColor=#393C56;" vertex="1" parent="VJxlPsrF5Fj8K6nHo9k7-1">
          <mxGeometry x="162.5" y="35" width="60" height="30" as="geometry" />
        </mxCell>
        <mxCell id="VJxlPsrF5Fj8K6nHo9k7-9" value="Projects" style="text;html=1;strokeColor=none;fillColor=none;align=center;verticalAlign=middle;whiteSpace=wrap;rounded=0;labelBackgroundColor=none;fontColor=#393C56;" vertex="1" parent="VJxlPsrF5Fj8K6nHo9k7-1">
          <mxGeometry x="220" y="35" width="60" height="30" as="geometry" />
        </mxCell>
        <mxCell id="VJxlPsrF5Fj8K6nHo9k7-10" value="Contact" style="text;html=1;strokeColor=none;fillColor=none;align=center;verticalAlign=middle;whiteSpace=wrap;rounded=0;labelBackgroundColor=none;fontColor=#393C56;" vertex="1" parent="VJxlPsrF5Fj8K6nHo9k7-1">
          <mxGeometry x="277.5" y="35" width="60" height="30" as="geometry" />
        </mxCell>
        <mxCell id="VJxlPsrF5Fj8K6nHo9k7-36" value="" style="rounded=0;whiteSpace=wrap;html=1;rotation=90;fillColor=#F2CC8F;strokeColor=#E07A5F;labelBackgroundColor=none;fontColor=#393C56;" vertex="1" parent="VJxlPsrF5Fj8K6nHo9k7-1">
          <mxGeometry x="-70" y="180" width="300" height="130" as="geometry" />
        </mxCell>
        <mxCell id="VJxlPsrF5Fj8K6nHo9k7-37" value="CV" style="text;html=1;strokeColor=none;fillColor=none;align=center;verticalAlign=middle;whiteSpace=wrap;rounded=0;labelBackgroundColor=none;fontColor=#393C56;" vertex="1" parent="VJxlPsrF5Fj8K6nHo9k7-1">
          <mxGeometry x="50" y="65" width="60" height="30" as="geometry" />
        </mxCell>
        <mxCell id="VJxlPsrF5Fj8K6nHo9k7-38" value="" style="shape=actor;whiteSpace=wrap;html=1;labelBackgroundColor=none;" vertex="1" parent="VJxlPsrF5Fj8K6nHo9k7-1">
          <mxGeometry x="60" y="120" width="40" height="60" as="geometry" />
        </mxCell>
        <mxCell id="VJxlPsrF5Fj8K6nHo9k7-39" value="About" style="swimlane;fillColor=#F2CC8F;strokeColor=#E07A5F;labelBackgroundColor=none;fontColor=#393C56;" vertex="1" parent="VJxlPsrF5Fj8K6nHo9k7-1">
          <mxGeometry x="180" y="95" width="300" height="295" as="geometry" />
        </mxCell>
        <mxCell id="VJxlPsrF5Fj8K6nHo9k7-40" value="&lt;h1&gt;&lt;font face=&quot;Times New Roman&quot; style=&quot;font-size: 14px;&quot;&gt;&lt;br&gt;&lt;/font&gt;&lt;/h1&gt;&lt;p&gt;&lt;font face=&quot;Times New Roman&quot; size=&quot;3&quot;&gt;Lorem ipsum dolor sit amet, consectetur adipisicing elit, sed do eiusmod tempor incididunt ut labore et dolore magna aliqua.&lt;/font&gt;&lt;/p&gt;" style="text;html=1;strokeColor=none;fillColor=none;spacing=5;spacingTop=-20;whiteSpace=wrap;overflow=hidden;rounded=0;labelBackgroundColor=none;fontColor=#393C56;" vertex="1" parent="VJxlPsrF5Fj8K6nHo9k7-39">
          <mxGeometry x="32.5" y="45" width="247.5" height="225" as="geometry" />
        </mxCell>
        <mxCell id="VJxlPsrF5Fj8K6nHo9k7-11" value="Contact Page" style="swimlane;whiteSpace=wrap;html=1;fillColor=#F2CC8F;strokeColor=#E07A5F;swimlaneFillColor=default;labelBorderColor=none;startSize=23;labelBackgroundColor=none;fontColor=#393C56;" vertex="1" parent="1">
          <mxGeometry x="850" y="200" width="500" height="410" as="geometry" />
        </mxCell>
        <mxCell id="VJxlPsrF5Fj8K6nHo9k7-12" value="" style="rounded=0;whiteSpace=wrap;html=1;fillColor=#F2CC8F;strokeColor=#E07A5F;glass=0;labelBackgroundColor=none;fontColor=#393C56;" vertex="1" parent="VJxlPsrF5Fj8K6nHo9k7-11">
          <mxGeometry x="165" y="30" width="170" height="40" as="geometry" />
        </mxCell>
        <mxCell id="VJxlPsrF5Fj8K6nHo9k7-13" value="" style="rounded=0;whiteSpace=wrap;html=1;labelBackgroundColor=none;fillColor=#F2CC8F;strokeColor=#E07A5F;fontColor=#393C56;" vertex="1" parent="VJxlPsrF5Fj8K6nHo9k7-11">
          <mxGeometry x="165" y="30" width="55" height="40" as="geometry" />
        </mxCell>
        <mxCell id="VJxlPsrF5Fj8K6nHo9k7-14" value="" style="rounded=0;whiteSpace=wrap;html=1;labelBackgroundColor=none;fillColor=#F2CC8F;strokeColor=#E07A5F;fontColor=#393C56;" vertex="1" parent="VJxlPsrF5Fj8K6nHo9k7-11">
          <mxGeometry x="220" y="30" width="60" height="40" as="geometry" />
        </mxCell>
        <mxCell id="VJxlPsrF5Fj8K6nHo9k7-15" value="" style="rounded=0;whiteSpace=wrap;html=1;labelBackgroundColor=none;fillColor=#F2CC8F;strokeColor=#E07A5F;fontColor=#393C56;" vertex="1" parent="VJxlPsrF5Fj8K6nHo9k7-11">
          <mxGeometry x="280" y="30" width="55" height="40" as="geometry" />
        </mxCell>
        <mxCell id="VJxlPsrF5Fj8K6nHo9k7-16" value="Home" style="text;html=1;strokeColor=none;fillColor=none;align=center;verticalAlign=middle;whiteSpace=wrap;rounded=0;labelBackgroundColor=none;fontColor=#393C56;" vertex="1" parent="VJxlPsrF5Fj8K6nHo9k7-11">
          <mxGeometry x="162.5" y="35" width="60" height="30" as="geometry" />
        </mxCell>
        <mxCell id="VJxlPsrF5Fj8K6nHo9k7-17" value="Projects" style="text;html=1;strokeColor=none;fillColor=none;align=center;verticalAlign=middle;whiteSpace=wrap;rounded=0;labelBackgroundColor=none;fontColor=#393C56;" vertex="1" parent="VJxlPsrF5Fj8K6nHo9k7-11">
          <mxGeometry x="220" y="35" width="60" height="30" as="geometry" />
        </mxCell>
        <mxCell id="VJxlPsrF5Fj8K6nHo9k7-18" value="Contact" style="text;html=1;strokeColor=none;fillColor=none;align=center;verticalAlign=middle;whiteSpace=wrap;rounded=0;labelBackgroundColor=none;fontColor=#393C56;" vertex="1" parent="VJxlPsrF5Fj8K6nHo9k7-11">
          <mxGeometry x="277.5" y="35" width="60" height="30" as="geometry" />
        </mxCell>
        <mxCell id="VJxlPsrF5Fj8K6nHo9k7-46" value="Email Form" style="swimlane;whiteSpace=wrap;html=1;strokeColor=#E07A5F;fontFamily=Helvetica;fontSize=11;fontColor=default;fillColor=#F2CC8F;" vertex="1" parent="VJxlPsrF5Fj8K6nHo9k7-11">
          <mxGeometry x="20" y="90" width="250" height="300" as="geometry" />
        </mxCell>
        <mxCell id="VJxlPsrF5Fj8K6nHo9k7-47" value="&lt;font style=&quot;font-size: 14px;&quot;&gt;Email:&lt;/font&gt;" style="text;html=1;strokeColor=none;fillColor=none;align=center;verticalAlign=middle;whiteSpace=wrap;rounded=0;fontSize=11;fontFamily=Helvetica;fontColor=default;" vertex="1" parent="VJxlPsrF5Fj8K6nHo9k7-46">
          <mxGeometry x="30" y="60" width="60" height="30" as="geometry" />
        </mxCell>
        <mxCell id="VJxlPsrF5Fj8K6nHo9k7-48" value="&lt;font style=&quot;font-size: 14px;&quot;&gt;PhoneNumber:&lt;/font&gt;" style="text;html=1;strokeColor=none;fillColor=none;align=center;verticalAlign=middle;whiteSpace=wrap;rounded=0;fontSize=11;fontFamily=Helvetica;fontColor=default;" vertex="1" parent="VJxlPsrF5Fj8K6nHo9k7-46">
          <mxGeometry x="30" y="100" width="60" height="30" as="geometry" />
        </mxCell>
        <mxCell id="VJxlPsrF5Fj8K6nHo9k7-49" value="&lt;font style=&quot;font-size: 14px;&quot;&gt;Message:&lt;/font&gt;" style="text;html=1;strokeColor=none;fillColor=none;align=center;verticalAlign=middle;whiteSpace=wrap;rounded=0;fontSize=11;fontFamily=Helvetica;fontColor=default;" vertex="1" parent="VJxlPsrF5Fj8K6nHo9k7-46">
          <mxGeometry x="30" y="150" width="60" height="30" as="geometry" />
        </mxCell>
        <mxCell id="VJxlPsrF5Fj8K6nHo9k7-50" value="My Contact Info" style="swimlane;whiteSpace=wrap;html=1;strokeColor=#E07A5F;fontFamily=Helvetica;fontSize=11;fontColor=default;fillColor=#F2CC8F;" vertex="1" parent="VJxlPsrF5Fj8K6nHo9k7-11">
          <mxGeometry x="280" y="90" width="210" height="300" as="geometry" />
        </mxCell>
        <mxCell id="VJxlPsrF5Fj8K6nHo9k7-19" value="Specific Project Page" style="swimlane;whiteSpace=wrap;html=1;fillColor=#F2CC8F;strokeColor=#E07A5F;swimlaneFillColor=default;labelBorderColor=none;labelBackgroundColor=none;fontColor=#393C56;" vertex="1" parent="1">
          <mxGeometry x="850" y="690" width="500" height="410" as="geometry" />
        </mxCell>
        <mxCell id="VJxlPsrF5Fj8K6nHo9k7-20" value="" style="rounded=0;whiteSpace=wrap;html=1;fillColor=#F2CC8F;strokeColor=#E07A5F;glass=0;labelBackgroundColor=none;fontColor=#393C56;" vertex="1" parent="VJxlPsrF5Fj8K6nHo9k7-19">
          <mxGeometry x="165" y="30" width="170" height="40" as="geometry" />
        </mxCell>
        <mxCell id="VJxlPsrF5Fj8K6nHo9k7-21" value="" style="rounded=0;whiteSpace=wrap;html=1;labelBackgroundColor=none;fillColor=#F2CC8F;strokeColor=#E07A5F;fontColor=#393C56;" vertex="1" parent="VJxlPsrF5Fj8K6nHo9k7-19">
          <mxGeometry x="165" y="30" width="55" height="40" as="geometry" />
        </mxCell>
        <mxCell id="VJxlPsrF5Fj8K6nHo9k7-22" value="" style="rounded=0;whiteSpace=wrap;html=1;labelBackgroundColor=none;fillColor=#F2CC8F;strokeColor=#E07A5F;fontColor=#393C56;" vertex="1" parent="VJxlPsrF5Fj8K6nHo9k7-19">
          <mxGeometry x="220" y="30" width="60" height="40" as="geometry" />
        </mxCell>
        <mxCell id="VJxlPsrF5Fj8K6nHo9k7-23" value="" style="rounded=0;whiteSpace=wrap;html=1;labelBackgroundColor=none;fillColor=#F2CC8F;strokeColor=#E07A5F;fontColor=#393C56;" vertex="1" parent="VJxlPsrF5Fj8K6nHo9k7-19">
          <mxGeometry x="280" y="30" width="55" height="40" as="geometry" />
        </mxCell>
        <mxCell id="VJxlPsrF5Fj8K6nHo9k7-24" value="Home" style="text;html=1;strokeColor=none;fillColor=none;align=center;verticalAlign=middle;whiteSpace=wrap;rounded=0;labelBackgroundColor=none;fontColor=#393C56;" vertex="1" parent="VJxlPsrF5Fj8K6nHo9k7-19">
          <mxGeometry x="162.5" y="35" width="60" height="30" as="geometry" />
        </mxCell>
        <mxCell id="VJxlPsrF5Fj8K6nHo9k7-25" value="Projects" style="text;html=1;strokeColor=none;fillColor=none;align=center;verticalAlign=middle;whiteSpace=wrap;rounded=0;labelBackgroundColor=none;fontColor=#393C56;" vertex="1" parent="VJxlPsrF5Fj8K6nHo9k7-19">
          <mxGeometry x="220" y="35" width="60" height="30" as="geometry" />
        </mxCell>
        <mxCell id="VJxlPsrF5Fj8K6nHo9k7-26" value="Contact" style="text;html=1;strokeColor=none;fillColor=none;align=center;verticalAlign=middle;whiteSpace=wrap;rounded=0;labelBackgroundColor=none;fontColor=#393C56;" vertex="1" parent="VJxlPsrF5Fj8K6nHo9k7-19">
          <mxGeometry x="277.5" y="35" width="60" height="30" as="geometry" />
        </mxCell>
        <mxCell id="VJxlPsrF5Fj8K6nHo9k7-76" value="Project Description" style="swimlane;whiteSpace=wrap;html=1;strokeColor=#E07A5F;fontFamily=Helvetica;fontSize=11;fontColor=default;fillColor=#F2CC8F;" vertex="1" parent="VJxlPsrF5Fj8K6nHo9k7-19">
          <mxGeometry x="290" y="120" width="160" height="190" as="geometry" />
        </mxCell>
        <mxCell id="VJxlPsrF5Fj8K6nHo9k7-77" value="" style="rounded=0;whiteSpace=wrap;html=1;strokeColor=#E07A5F;fontFamily=Helvetica;fontSize=11;fontColor=default;fillColor=#F2CC8F;rotation=90;" vertex="1" parent="VJxlPsrF5Fj8K6nHo9k7-19">
          <mxGeometry x="30" y="120" width="250" height="200" as="geometry" />
        </mxCell>
        <mxCell id="VJxlPsrF5Fj8K6nHo9k7-78" value="Name" style="text;html=1;strokeColor=none;fillColor=none;align=center;verticalAlign=middle;whiteSpace=wrap;rounded=0;fontSize=11;fontFamily=Helvetica;fontColor=default;" vertex="1" parent="VJxlPsrF5Fj8K6nHo9k7-19">
          <mxGeometry x="120" y="100" width="60" height="30" as="geometry" />
        </mxCell>
        <mxCell id="VJxlPsrF5Fj8K6nHo9k7-27" value="Projects Page" style="swimlane;whiteSpace=wrap;html=1;fillColor=#F2CC8F;strokeColor=#E07A5F;swimlaneFillColor=default;labelBorderColor=none;labelBackgroundColor=none;fontColor=#393C56;" vertex="1" parent="1">
          <mxGeometry x="240" y="690" width="500" height="410" as="geometry" />
        </mxCell>
        <mxCell id="VJxlPsrF5Fj8K6nHo9k7-28" value="" style="rounded=0;whiteSpace=wrap;html=1;fillColor=#F2CC8F;strokeColor=#E07A5F;glass=0;labelBackgroundColor=none;fontColor=#393C56;" vertex="1" parent="VJxlPsrF5Fj8K6nHo9k7-27">
          <mxGeometry x="165" y="30" width="170" height="40" as="geometry" />
        </mxCell>
        <mxCell id="VJxlPsrF5Fj8K6nHo9k7-29" value="" style="rounded=0;whiteSpace=wrap;html=1;labelBackgroundColor=none;fillColor=#F2CC8F;strokeColor=#E07A5F;fontColor=#393C56;" vertex="1" parent="VJxlPsrF5Fj8K6nHo9k7-27">
          <mxGeometry x="165" y="30" width="55" height="40" as="geometry" />
        </mxCell>
        <mxCell id="VJxlPsrF5Fj8K6nHo9k7-30" value="" style="rounded=0;whiteSpace=wrap;html=1;labelBackgroundColor=none;fillColor=#F2CC8F;strokeColor=#E07A5F;fontColor=#393C56;" vertex="1" parent="VJxlPsrF5Fj8K6nHo9k7-27">
          <mxGeometry x="220" y="30" width="60" height="40" as="geometry" />
        </mxCell>
        <mxCell id="VJxlPsrF5Fj8K6nHo9k7-31" value="" style="rounded=0;whiteSpace=wrap;html=1;labelBackgroundColor=none;fillColor=#F2CC8F;strokeColor=#E07A5F;fontColor=#393C56;" vertex="1" parent="VJxlPsrF5Fj8K6nHo9k7-27">
          <mxGeometry x="280" y="30" width="55" height="40" as="geometry" />
        </mxCell>
        <mxCell id="VJxlPsrF5Fj8K6nHo9k7-32" value="Home" style="text;html=1;strokeColor=none;fillColor=none;align=center;verticalAlign=middle;whiteSpace=wrap;rounded=0;labelBackgroundColor=none;fontColor=#393C56;" vertex="1" parent="VJxlPsrF5Fj8K6nHo9k7-27">
          <mxGeometry x="162.5" y="35" width="60" height="30" as="geometry" />
        </mxCell>
        <mxCell id="VJxlPsrF5Fj8K6nHo9k7-33" value="Projects" style="text;html=1;strokeColor=none;fillColor=none;align=center;verticalAlign=middle;whiteSpace=wrap;rounded=0;labelBackgroundColor=none;fontColor=#393C56;" vertex="1" parent="VJxlPsrF5Fj8K6nHo9k7-27">
          <mxGeometry x="220" y="35" width="60" height="30" as="geometry" />
        </mxCell>
        <mxCell id="VJxlPsrF5Fj8K6nHo9k7-34" value="Contact" style="text;html=1;strokeColor=none;fillColor=none;align=center;verticalAlign=middle;whiteSpace=wrap;rounded=0;labelBackgroundColor=none;fontColor=#393C56;" vertex="1" parent="VJxlPsrF5Fj8K6nHo9k7-27">
          <mxGeometry x="277.5" y="35" width="60" height="30" as="geometry" />
        </mxCell>
        <mxCell id="VJxlPsrF5Fj8K6nHo9k7-55" value="Different Projects" style="swimlane;whiteSpace=wrap;html=1;strokeColor=#E07A5F;fontFamily=Helvetica;fontSize=11;fontColor=default;fillColor=#F2CC8F;" vertex="1" parent="VJxlPsrF5Fj8K6nHo9k7-27">
          <mxGeometry x="30" y="90" width="440" height="300" as="geometry" />
        </mxCell>
        <mxCell id="VJxlPsrF5Fj8K6nHo9k7-56" value="" style="whiteSpace=wrap;html=1;aspect=fixed;strokeColor=#E07A5F;fontFamily=Helvetica;fontSize=11;fontColor=default;fillColor=#F2CC8F;" vertex="1" parent="VJxlPsrF5Fj8K6nHo9k7-55">
          <mxGeometry x="30" y="50" width="80" height="80" as="geometry" />
        </mxCell>
        <mxCell id="VJxlPsrF5Fj8K6nHo9k7-57" value="" style="whiteSpace=wrap;html=1;aspect=fixed;strokeColor=#E07A5F;fontFamily=Helvetica;fontSize=11;fontColor=default;fillColor=#F2CC8F;" vertex="1" parent="VJxlPsrF5Fj8K6nHo9k7-55">
          <mxGeometry x="135" y="50" width="80" height="80" as="geometry" />
        </mxCell>
        <mxCell id="VJxlPsrF5Fj8K6nHo9k7-59" value="" style="whiteSpace=wrap;html=1;aspect=fixed;strokeColor=#E07A5F;fontFamily=Helvetica;fontSize=11;fontColor=default;fillColor=#F2CC8F;" vertex="1" parent="VJxlPsrF5Fj8K6nHo9k7-55">
          <mxGeometry x="240" y="50" width="80" height="80" as="geometry" />
        </mxCell>
        <mxCell id="VJxlPsrF5Fj8K6nHo9k7-60" value="" style="whiteSpace=wrap;html=1;aspect=fixed;strokeColor=#E07A5F;fontFamily=Helvetica;fontSize=11;fontColor=default;fillColor=#F2CC8F;" vertex="1" parent="VJxlPsrF5Fj8K6nHo9k7-55">
          <mxGeometry x="350" y="50" width="80" height="80" as="geometry" />
        </mxCell>
        <mxCell id="VJxlPsrF5Fj8K6nHo9k7-61" value="" style="whiteSpace=wrap;html=1;aspect=fixed;strokeColor=#E07A5F;fontFamily=Helvetica;fontSize=11;fontColor=default;fillColor=#F2CC8F;" vertex="1" parent="VJxlPsrF5Fj8K6nHo9k7-55">
          <mxGeometry x="30" y="190" width="80" height="80" as="geometry" />
        </mxCell>
        <mxCell id="VJxlPsrF5Fj8K6nHo9k7-62" value="" style="whiteSpace=wrap;html=1;aspect=fixed;strokeColor=#E07A5F;fontFamily=Helvetica;fontSize=11;fontColor=default;fillColor=#F2CC8F;" vertex="1" parent="VJxlPsrF5Fj8K6nHo9k7-55">
          <mxGeometry x="135" y="190" width="80" height="80" as="geometry" />
        </mxCell>
        <mxCell id="VJxlPsrF5Fj8K6nHo9k7-63" value="" style="whiteSpace=wrap;html=1;aspect=fixed;strokeColor=#E07A5F;fontFamily=Helvetica;fontSize=11;fontColor=default;fillColor=#F2CC8F;" vertex="1" parent="VJxlPsrF5Fj8K6nHo9k7-55">
          <mxGeometry x="240" y="190" width="80" height="80" as="geometry" />
        </mxCell>
        <mxCell id="VJxlPsrF5Fj8K6nHo9k7-64" value="" style="whiteSpace=wrap;html=1;aspect=fixed;strokeColor=#E07A5F;fontFamily=Helvetica;fontSize=11;fontColor=default;fillColor=#F2CC8F;" vertex="1" parent="VJxlPsrF5Fj8K6nHo9k7-55">
          <mxGeometry x="350" y="190" width="80" height="80" as="geometry" />
        </mxCell>
        <mxCell id="VJxlPsrF5Fj8K6nHo9k7-41" style="edgeStyle=orthogonalEdgeStyle;rounded=0;orthogonalLoop=1;jettySize=auto;html=1;entryX=0.5;entryY=0;entryDx=0;entryDy=0;labelBackgroundColor=none;fontColor=default;" edge="1" parent="1" source="VJxlPsrF5Fj8K6nHo9k7-10" target="VJxlPsrF5Fj8K6nHo9k7-11">
          <mxGeometry relative="1" as="geometry">
            <Array as="points">
              <mxPoint x="760" y="250" />
              <mxPoint x="760" y="180" />
              <mxPoint x="1100" y="180" />
            </Array>
          </mxGeometry>
        </mxCell>
        <mxCell id="VJxlPsrF5Fj8K6nHo9k7-43" value="Click" style="edgeLabel;html=1;align=center;verticalAlign=middle;resizable=0;points=[];fontSize=11;fontFamily=Helvetica;fontColor=default;" connectable="0" vertex="1" parent="VJxlPsrF5Fj8K6nHo9k7-41">
          <mxGeometry x="-0.6873" y="-1" relative="1" as="geometry">
            <mxPoint x="-1" as="offset" />
          </mxGeometry>
        </mxCell>
        <mxCell id="VJxlPsrF5Fj8K6nHo9k7-42" style="edgeStyle=orthogonalEdgeStyle;shape=connector;rounded=0;orthogonalLoop=1;jettySize=auto;html=1;entryX=0.5;entryY=0;entryDx=0;entryDy=0;labelBackgroundColor=none;strokeColor=default;align=center;verticalAlign=middle;fontFamily=Helvetica;fontSize=11;fontColor=default;endArrow=classic;" edge="1" parent="1" source="VJxlPsrF5Fj8K6nHo9k7-16" target="VJxlPsrF5Fj8K6nHo9k7-1">
          <mxGeometry relative="1" as="geometry">
            <Array as="points">
              <mxPoint x="830" y="250" />
              <mxPoint x="830" y="180" />
              <mxPoint x="490" y="180" />
            </Array>
          </mxGeometry>
        </mxCell>
        <mxCell id="VJxlPsrF5Fj8K6nHo9k7-45" value="Click" style="edgeLabel;html=1;align=center;verticalAlign=middle;resizable=0;points=[];fontSize=11;fontFamily=Helvetica;fontColor=default;" connectable="0" vertex="1" parent="VJxlPsrF5Fj8K6nHo9k7-42">
          <mxGeometry x="-0.7412" y="1" relative="1" as="geometry">
            <mxPoint x="-1" as="offset" />
          </mxGeometry>
        </mxCell>
        <mxCell id="VJxlPsrF5Fj8K6nHo9k7-53" style="edgeStyle=orthogonalEdgeStyle;shape=connector;rounded=0;orthogonalLoop=1;jettySize=auto;html=1;exitX=1;exitY=0.75;exitDx=0;exitDy=0;entryX=0.5;entryY=0;entryDx=0;entryDy=0;labelBackgroundColor=none;strokeColor=default;align=center;verticalAlign=middle;fontFamily=Helvetica;fontSize=11;fontColor=default;endArrow=classic;" edge="1" parent="1" source="VJxlPsrF5Fj8K6nHo9k7-10" target="VJxlPsrF5Fj8K6nHo9k7-27">
          <mxGeometry relative="1" as="geometry">
            <Array as="points">
              <mxPoint x="790" y="257" />
              <mxPoint x="790" y="630" />
              <mxPoint x="490" y="630" />
            </Array>
          </mxGeometry>
        </mxCell>
        <mxCell id="VJxlPsrF5Fj8K6nHo9k7-54" value="Click" style="edgeLabel;html=1;align=center;verticalAlign=middle;resizable=0;points=[];fontSize=11;fontFamily=Helvetica;fontColor=default;" connectable="0" vertex="1" parent="VJxlPsrF5Fj8K6nHo9k7-53">
          <mxGeometry x="-0.509" y="-1" relative="1" as="geometry">
            <mxPoint as="offset" />
          </mxGeometry>
        </mxCell>
        <mxCell id="VJxlPsrF5Fj8K6nHo9k7-65" style="edgeStyle=orthogonalEdgeStyle;shape=connector;rounded=0;orthogonalLoop=1;jettySize=auto;html=1;entryX=0.474;entryY=-0.001;entryDx=0;entryDy=0;entryPerimeter=0;labelBackgroundColor=none;strokeColor=default;align=center;verticalAlign=middle;fontFamily=Helvetica;fontSize=11;fontColor=default;endArrow=classic;" edge="1" parent="1" source="VJxlPsrF5Fj8K6nHo9k7-32" target="VJxlPsrF5Fj8K6nHo9k7-1">
          <mxGeometry relative="1" as="geometry" />
        </mxCell>
        <mxCell id="VJxlPsrF5Fj8K6nHo9k7-67" value="Click" style="edgeLabel;html=1;align=center;verticalAlign=middle;resizable=0;points=[];fontSize=11;fontFamily=Helvetica;fontColor=default;" connectable="0" vertex="1" parent="VJxlPsrF5Fj8K6nHo9k7-65">
          <mxGeometry x="-0.8564" y="2" relative="1" as="geometry">
            <mxPoint x="-1" as="offset" />
          </mxGeometry>
        </mxCell>
        <mxCell id="VJxlPsrF5Fj8K6nHo9k7-68" style="edgeStyle=orthogonalEdgeStyle;shape=connector;rounded=0;orthogonalLoop=1;jettySize=auto;html=1;exitX=1;exitY=0.5;exitDx=0;exitDy=0;entryX=0.5;entryY=0;entryDx=0;entryDy=0;labelBackgroundColor=none;strokeColor=default;align=center;verticalAlign=middle;fontFamily=Helvetica;fontSize=11;fontColor=default;endArrow=classic;" edge="1" parent="1" source="VJxlPsrF5Fj8K6nHo9k7-60" target="VJxlPsrF5Fj8K6nHo9k7-19">
          <mxGeometry relative="1" as="geometry" />
        </mxCell>
        <mxCell id="VJxlPsrF5Fj8K6nHo9k7-69" value="Click" style="edgeLabel;html=1;align=center;verticalAlign=middle;resizable=0;points=[];fontSize=11;fontFamily=Helvetica;fontColor=default;" connectable="0" vertex="1" parent="VJxlPsrF5Fj8K6nHo9k7-68">
          <mxGeometry x="-0.5024" relative="1" as="geometry">
            <mxPoint x="-1" y="-1" as="offset" />
          </mxGeometry>
        </mxCell>
        <mxCell id="VJxlPsrF5Fj8K6nHo9k7-70" style="edgeStyle=orthogonalEdgeStyle;shape=connector;rounded=0;orthogonalLoop=1;jettySize=auto;html=1;entryX=0.544;entryY=-0.001;entryDx=0;entryDy=0;entryPerimeter=0;labelBackgroundColor=none;strokeColor=default;align=center;verticalAlign=middle;fontFamily=Helvetica;fontSize=11;fontColor=default;endArrow=classic;" edge="1" parent="1" source="VJxlPsrF5Fj8K6nHo9k7-34" target="VJxlPsrF5Fj8K6nHo9k7-11">
          <mxGeometry relative="1" as="geometry">
            <Array as="points">
              <mxPoint x="810" y="740" />
              <mxPoint x="810" y="150" />
              <mxPoint x="1122" y="150" />
            </Array>
          </mxGeometry>
        </mxCell>
        <mxCell id="VJxlPsrF5Fj8K6nHo9k7-71" value="Click" style="edgeLabel;html=1;align=center;verticalAlign=middle;resizable=0;points=[];fontSize=11;fontFamily=Helvetica;fontColor=default;" connectable="0" vertex="1" parent="VJxlPsrF5Fj8K6nHo9k7-70">
          <mxGeometry x="-0.8277" y="-1" relative="1" as="geometry">
            <mxPoint x="-1" as="offset" />
          </mxGeometry>
        </mxCell>
      </root>
    </mxGraphModel>
  </diagram>
</mxfile>
